<svg width="648" height="633" fill="none" xmlns="http://www.w3.org/2000/svg"><g clip-path="url(#a)"><path d="m449.226 140.174-39.23-128.1403c-.652-2.135-1.719-4.12052-3.14-5.84305-1.42-1.72252-3.166-3.14829-5.138-4.19583-1.971-1.047541-4.13-1.696337-6.352-1.9092853-2.223-.2129487-4.465.0141218-6.6.6682133L296.016 29.1437l-191.24 58.5501-92.7495 28.4002c-4.30868 1.323-7.9164 4.301-10.03126 8.282-2.114857 3.98-2.564083 8.637-1.249051 12.948L134.826 575.254c1.069 3.48 3.224 6.526 6.151 8.691 2.926 2.165 6.469 3.335 10.11 3.339 1.684.001 3.36-.252 4.969-.75l63.58-19.46 2-.62v-2.09l-2 .61-64.17 19.65c-3.803 1.159-7.911.763-11.422-1.103-3.511-1.865-6.139-5.047-7.308-8.847L2.6666 136.734c-.57891-1.883-.78068-3.862-.59375-5.823.18692-1.961.75885-3.866 1.68307-5.606.92422-1.74 2.18258-3.281 3.70298-4.533 1.52039-1.253 3.273-2.194 5.1574-2.768l92.7497-28.4002 191.241-58.54 92.75-28.40003c1.429-.4362 2.915-.65861 4.409-.66001 3.207.0072 6.328 1.04116 8.905 2.95043 2.577 1.90926 4.475 4.59351 5.416 7.65961l39.049 127.5602.62 2h2.081l-.611-2Z" fill="#453730"/><path d="M122.681 127.821c-1.927-.002-3.803-.621-5.353-1.766-1.55-1.146-2.692-2.759-3.258-4.601l-12.881-42.0718c-.346-1.1301-.466-2.3173-.353-3.4938.113-1.1766.456-2.3194 1.011-3.3632.554-1.0438 1.309-1.9681 2.221-2.7202.911-.752 1.962-1.3171 3.093-1.663L283.1 14.2782c2.282-.6964 4.747-.4589 6.855.6605 2.107 1.1194 3.685 3.0292 4.385 5.3102l12.881 42.0723c.696 2.2824.458 4.7477-.661 6.855-1.12 2.1073-3.029 3.6845-5.31 4.3857L125.311 127.426c-.852.261-1.739.394-2.63.395Z" fill="#FF4F00"/><path fill-rule="evenodd" clip-rule="evenodd" d="M210.153 24.9546c0 11.0457-8.954 20-20 20-11.045 0-20-8.9543-20-20s8.955-20.00001 20-20.00001c11.046 0 20 8.95431 20 20.00001Zm-7.335.0001c0 6.9944-5.67 12.6646-12.664 12.6646-6.995 0-12.665-5.6702-12.665-12.6646 0-6.9945 5.67-12.6647 12.665-12.6647 6.994 0 12.664 5.6702 12.664 12.6647Z" fill="#FF4F00"/><path d="M447.137 140.174h-210.5c-4.507.006-8.827 1.799-12.014 4.986-3.187 3.187-4.98 7.507-4.986 12.014v407.8l2-.61v-407.19c.005-3.977 1.586-7.789 4.398-10.601 2.812-2.812 6.625-4.394 10.602-4.399h211.12l-.62-2Zm183.5 0h-394c-4.507.006-8.827 1.799-12.014 4.986-3.187 3.187-4.98 7.507-4.986 12.014v458c.006 4.507 1.799 8.827 4.986 12.014 3.187 3.186 7.507 4.979 12.014 4.986h394c4.506-.007 8.827-1.8 12.014-4.986 3.186-3.187 4.979-7.507 4.986-12.014v-458c-.007-4.507-1.8-8.827-4.986-12.014-3.187-3.187-7.508-4.98-12.014-4.986Zm15 475c-.005 3.977-1.587 7.789-4.399 10.601-2.812 2.812-6.625 4.394-10.601 4.399h-394c-3.977-.005-7.79-1.587-10.602-4.399-2.812-2.812-4.393-6.624-4.398-10.601v-458c.005-3.977 1.586-7.789 4.398-10.601 2.812-2.812 6.625-4.394 10.602-4.399h394c3.976.005 7.789 1.587 10.601 4.399 2.812 2.812 4.394 6.624 4.399 10.601v458Z" fill="#453730"/><path d="M525.637 184.174h-184c-2.386-.003-4.674-.952-6.361-2.639-1.688-1.687-2.637-3.975-2.639-6.361v-44c.002-2.386.952-4.674 2.639-6.361 1.687-1.687 3.975-2.636 6.361-2.639h184c2.386.003 4.673.952 6.361 2.639 1.687 1.687 2.636 3.975 2.639 6.361v44c-.003 2.386-.952 4.674-2.639 6.361-1.688 1.687-3.975 2.636-6.361 2.639Z" fill="#FF4F00"/><path fill-rule="evenodd" clip-rule="evenodd" d="M453.637 105.174c0 11.046-8.955 20-20 20-11.046 0-20-8.954-20-20 0-11.0459 8.954-20.0002 20-20.0002 11.045 0 20 8.9543 20 20.0002Zm-7.819 0c0 6.728-5.454 12.182-12.182 12.182-6.728 0-12.182-5.454-12.182-12.182 0-6.728 5.454-12.1821 12.182-12.1821 6.728 0 12.182 5.4541 12.182 12.1821Z" fill="#FF4F00"/></g><defs><clipPath id="a"><path fill="#fff" d="M0 0h647.636v632.174H0z"/></clipPath></defs></svg>