<svg width="500" height="500" viewBox="0 0 500 500" fill="none" xmlns="http://www.w3.org/2000/svg">
    <path d="M500 0H0V500H500V0Z" fill="#9EDEF8" />
    <path
        d="M348.08 311.68H401.08C405.24 311.68 406.8 313.76 406.28 317.92L400.56 358.46C400.04 362.1 398.49 363.66 394.85 363.66H340.81L330.93 433.83C330.41 437.47 328.85 439.03 325.21 439.03H282.59C278.43 439.03 276.87 436.95 277.39 432.79L286.75 363.66H199.94L190.07 433.83C189.55 437.47 187.99 439.03 184.35 439.03H142.25C138.09 439.03 136.53 436.95 137.05 432.79L146.4 363.66H94.4003C90.2503 363.66 88.6903 361.58 89.2103 357.42L94.9203 316.88C95.4403 313.24 97.0003 311.68 100.64 311.68H153.64L168.71 203.05H116.71C112.55 203.05 110.47 200.97 110.99 196.81L115.67 156.26C116.19 153.15 118.27 151.07 121.38 151.07H176L185.88 80.8899C186.4 77.2499 187.96 75.6899 191.6 75.6899H234.22C238.38 75.6899 239.94 77.7699 239.42 81.9299L230.06 151.07H316.35L326.22 80.8899C326.74 77.2499 328.3 75.6899 331.94 75.6899H374.56C378.72 75.6899 380.28 77.7699 379.76 81.9299L370.41 151.07H422.41C426.56 151.07 428.64 153.15 428.12 157.3L423.44 197.85C422.93 200.97 420.85 203.05 417.73 203.05H363.16L348.08 311.68ZM222.81 203.05L207.22 311.68H294L309.1 203.05H222.81Z"
        fill="#71CEEA"
    />
    <path d="M230.26 452.72C316.163 452.72 385.8 447.468 385.8 440.99C385.8 434.512 316.163 429.26 230.26 429.26C144.358 429.26 74.7202 434.512 74.7202 440.99C74.7202 447.468 144.358 452.72 230.26 452.72Z" fill="#71CEEA" />
    <path
        d="M335.63 311.65H389C393.18 311.65 394.74 313.74 394.22 317.92L388.47 358.69C387.95 362.35 386.38 363.92 382.72 363.92H328.31L318.38 434.48C317.86 438.14 316.29 439.71 312.63 439.71H269.77C265.58 439.71 264.02 437.62 264.54 433.44L274 363.92H186.7L176.77 434.48C176.25 438.14 174.68 439.71 171.02 439.71H128.63C124.45 439.71 122.88 437.62 123.41 433.44L132.82 363.92H80.54C76.36 363.92 74.79 361.83 75.32 357.64L81.07 316.87C81.59 313.22 83.16 311.65 86.82 311.65H140.13L155.29 202.4H103C98.82 202.4 96.73 200.31 97.25 196.13L102 155.36C102.52 152.22 104.61 150.13 107.74 150.13H162.63L172.56 79.56C173.08 75.9 174.65 74.33 178.31 74.33H221.17C225.36 74.33 226.92 76.43 226.4 80.61L217 150.13H303.77L313.7 79.56C314.23 75.9 315.79 74.33 319.45 74.33H362.32C366.5 74.33 368.07 76.43 367.54 80.61L358.14 150.13H410.41C414.59 150.13 416.68 152.22 416.16 156.4L411.45 197.17C410.93 200.31 408.84 202.4 405.7 202.4H350.79L335.63 311.65ZM209.63 202.4L194 311.65H281.3L296.42 202.4H209.63Z"
        fill="#F4F4F4"
    />
    <path d="M235.05 150.13C239.18 154.41 247.17 161.13 257.83 162.41C273.83 164.41 290.42 161.75 290.42 161.75L309.1 203.05L308.37 143.79L304.62 143.92L303.74 150.13H235.05Z" fill="#C1D2D6" />
    <path
        d="M335.63 311.65L335.78 310.55L322.89 314.42L313.41 380.27C324.37 366.305 331.486 349.716 334.05 332.15L345.8 363.92H361.56C363.99 351.58 364.27 340.26 362.24 330.02C362.24 330.02 373.65 319.46 376.7 311.65H335.63Z"
        fill="#C1D2D6"
    />
    <path
        d="M182 385.88C180 370.59 166.7 355.95 166.7 355.95C166.7 355.95 164.7 344.65 163.37 332.01C162.04 319.37 145.42 315.38 145.42 315.38L136.54 439.71H171C174.66 439.71 176.23 438.14 176.75 434.48L182.94 390.54C182.531 389.008 182.217 387.451 182 385.88V385.88Z"
        fill="#C1D2D6"
    />
    <path d="M253.12 114.27C253.64 113.49 282.04 95.77 282.04 95.77L287.51 96.03L312.26 138.24L295.85 133.55L283.34 113.23L270.84 134.33L257.84 134.07L253.12 114.27Z" fill="#024380" />
    <path
        d="M139.14 377.55C134.522 377.537 130.096 375.696 126.83 372.43C123.564 369.164 121.724 364.739 121.71 360.12V327.79C121.724 323.171 123.564 318.746 126.83 315.48C130.096 312.214 134.522 310.373 139.14 310.36V310.36C143.76 310.373 148.187 312.213 151.454 315.479C154.722 318.745 156.565 323.17 156.58 327.79V360.12C156.565 364.74 154.722 369.165 151.454 372.431C148.187 375.697 143.76 377.537 139.14 377.55V377.55Z"
        fill="#2B4578"
    />
    <path
        d="M171.65 384.34C169.32 372.93 164.46 353.91 151.15 358.34C144.608 360.868 137.429 361.24 130.66 359.4C130.66 359.4 117.98 353.48 111.85 359.82C105.72 366.16 112.69 408.82 112.69 408.82L134.88 423.4L153.05 408.82L158.12 380.72C158.12 380.72 164.89 395.51 162.77 408.19C162.35 409.04 171.23 408.19 171.23 408.19C171.23 408.19 174 395.75 171.65 384.34Z"
        fill="#32A0E6"
    />
    <path
        d="M151.15 358.35C151.15 358.35 147.56 357.72 145.66 355.6C143.76 353.48 145.02 346.94 145.02 346.94C142.923 347.328 140.807 347.605 138.68 347.77C136.557 347.605 134.444 347.328 132.35 346.94C132.35 346.94 133.61 353.49 131.71 355.6C129.81 357.71 126.22 358.35 126.22 358.35C126.22 358.35 129.92 368.35 138.68 368.35C147.44 368.35 151.15 358.35 151.15 358.35Z"
        fill="#F2A479"
    />
    <path d="M129.92 433.15C129.92 433.15 117.66 434.42 116.61 436.32C115.56 438.22 119.35 444.99 121.89 446.04C124.43 447.09 139.64 439.28 139.64 439.28L129.92 433.15Z" fill="#736862" />
    <path d="M129.92 433.15C129.92 433.15 117.66 434.42 116.61 436.32C115.56 438.22 119.35 444.99 121.89 446.04C124.43 447.09 139.64 439.28 139.64 439.28L129.92 433.15Z" fill="#736862" />
    <path d="M147.56 433.15C147.56 433.15 159.81 434.42 160.87 436.32C161.93 438.22 158.12 444.99 155.59 446.04C153.06 447.09 137.84 439.28 137.84 439.28L147.56 433.15Z" fill="#736862" />
    <path d="M128.74 341.61C128.74 341.61 123.36 339.22 123.16 335.61C122.96 332 127.54 333.82 127.54 333.82L128.74 341.61Z" fill="#F2A479" />
    <path d="M148.74 341.61C148.74 341.61 154.12 339.22 154.32 335.61C154.52 332 149.94 333.82 149.94 333.82L148.74 341.61Z" fill="#F2A479" />
    <path d="M152.32 333.89C152.32 343.54 143.37 351.36 138.89 351.36C134.41 351.36 125.45 343.54 125.45 333.89C125.45 324.24 137.39 329.07 138.89 316.43C147.25 318.72 152.32 324.25 152.32 333.89Z" fill="#FFC39A" />
    <path d="M148.62 357.51H136.15L138.9 371.66H145.66L148.62 357.51Z" fill="white" />
    <path
        d="M131.07 369.19C131.07 369.19 113.07 384.69 110.31 388.06C107.55 391.43 109.47 397.71 110.96 399.78C112.45 401.85 119.5 399.35 121.73 396.52C123.96 393.69 135 375.73 135 375.73C135 375.73 143.58 374.42 145.07 373.26C146.56 372.1 146.66 363.02 146.36 361.57C146.06 360.12 134.67 365.66 131.07 369.19Z"
        fill="#FFC39A"
    />
    <path
        d="M93.8902 397.66C90.8902 397.87 85.1202 411.18 89.2402 416.25C90.9202 418.32 125.9 433.79 125.9 433.79L130.9 434C130.9 434 134.28 438.54 138.29 439.81C142.73 441.08 182.11 424.5 184.78 417.52C190.27 403.15 174.21 403.78 174.21 403.78L134.91 413.71C134.91 413.71 96.8502 397.44 93.8902 397.66Z"
        fill="black"
    />
    <path d="M170.49 394.27L167.53 406.74H158.86L161.19 394.49L170.49 394.27Z" fill="black" />
    <path d="M172.18 403.15C171.54 403.15 158.86 403.99 158.86 403.99C158.86 403.99 157.6 409.28 161.4 411.39C164.019 412.676 166.95 413.189 169.85 412.87L172.18 403.15Z" fill="#F2A479" />
    <path d="M299 206.1L301.8 204.15L325.24 225.51C325.24 225.51 309.26 224.47 299 206.1Z" fill="#BABABA" />
    <path d="M315.9 200.5L317.6 210.59H309.98L306.46 205.71L308.81 198.09L315.9 200.5Z" fill="#DD8158" />
    <path d="M285.16 92.6499L290.9 89.6499L291.29 83.7899L296.89 93.6899L285.16 99.4199V92.6499Z" fill="#DD8158" />
    <path d="M301.84 204.15L308.35 199.98C308.35 199.98 307.57 208.58 316.95 206.98C316.95 207.5 325.28 225.48 325.28 225.48C325.28 225.48 310.43 221.08 301.84 204.15Z" fill="black" />
    <path
        d="M257.81 120.78L233.32 130.94C233.32 130.94 239.84 145.53 244.52 148.14C249.2 150.75 300.27 149.44 300.27 149.44L308.35 200L315.9 200.52C315.9 200.52 316.95 143.73 315.38 138C313.81 132.27 263.54 126 263.54 126L257.81 120.78Z"
        fill="#065196"
    />
    <path d="M247.65 85.61L285.16 92.65V99.42L252.6 94.73L247.65 85.61Z" fill="#1085C6" />
    <path d="M224.46 61.05C224.46 61.05 215.61 47.22 215.61 38.92C215.61 30.62 222.52 27.85 225.84 27.02C229.16 26.19 240.78 31.72 241.61 26.74C248.81 26.47 250.74 37.81 246.61 41.96C242.17 46.11 224.46 61.05 224.46 61.05Z" fill="black" />
    <path d="M220.86 63.82L223.91 51.37L237.46 59.39L231.93 71.29L220.86 63.82Z" fill="#DD8158" />
    <path d="M238.53 69.9999L218.73 58.5399V64.2699C218.73 64.2699 207.53 73.3899 210.14 84.3299C212.75 95.2699 236.71 138 236.71 138L263.28 125.75L253.38 108.3L285.43 107.52L287 97.0799L253.64 90.2999L238.53 69.9999Z" fill="#32A0E6" />
    <path d="M287 97.08L291.69 94.93L291.88 87.93L294.23 92.43L303.79 82L303.49 86.36C303.197 90.8434 301.14 95.0283 297.77 98L296.37 99.24L285.69 106.24L287 97.08Z" fill="#F2A479" />
    <path d="M301.45 75.58L292.72 87.18L295.78 91.41L306 79.62L301.45 75.58Z" fill="#F4F4F4" />
    <path
        d="M227.5 48.88C227.5 48.88 222.8 46.11 221.97 50.26C221.14 54.41 226.97 54.69 226.97 54.69C226.97 54.69 230.57 65.48 239.42 66.31C248.55 59.11 246.61 41.96 246.61 41.96C243.504 42.4798 240.342 42.574 237.21 42.24C235.53 42.24 232.76 48.05 227.5 48.88Z"
        fill="#F2A479"
    />
    <path d="M253.38 108.28L243.61 108.8L229.15 90.8199L242.83 114.27L254.55 111.14L253.38 108.28Z" fill="#1085C6" />
    <path d="M355.4 376.24L347.67 377.24C347.67 377.24 332.46 386.66 336.25 390.59C338.25 392.66 356.75 384.81 356.75 384.81L355.4 376.24Z" fill="#366EA0" />
    <path d="M355.43 374.65L347.7 375.65C347.7 375.65 334.58 386.81 335.85 388.86C337.12 390.91 356.34 382.77 356.34 382.77L355.43 374.65Z" fill="#5E95C9" />
    <path d="M347.85 375.46L341.05 381.69L344.43 383.11L353.3 374.88L347.85 375.46Z" fill="#1A5887" />
    <path d="M315 374.33L307.46 372.33C307.46 372.33 289.83 375.4 291.89 380.46C292.98 383.13 313.06 382.75 313.06 382.75L315 374.33Z" fill="#366EA0" />
    <path d="M315.58 372.87L308.05 370.87C308.05 370.87 291.71 376.33 292.13 378.7C292.55 381.07 313.41 380.7 313.41 380.7L315.58 372.87Z" fill="#5E95C9" />
    <path d="M308.24 370.8L299.62 374.05L302.22 376.62L313.52 372.28L308.24 370.8Z" fill="#1A5887" />
    <path
        d="M346.7 201.94C346.7 201.94 348.23 214.63 354.75 214.63C359.463 214.501 364.152 213.912 368.75 212.87L369.02 220.2L376.08 218.84C376.08 218.84 377.43 207.71 375.26 202.01C373.09 196.31 364.07 196.85 362.17 197.39C360.27 197.93 349.42 204.92 346.7 201.94Z"
        fill="#2A4377"
    />
    <path
        d="M347.27 290.1C347.27 290.1 318.07 302.1 315.99 308.92C313.91 315.74 305.22 371.13 305.22 371.13L315.76 374.19C315.76 374.19 324 349.73 327 337.81C328.637 331.339 328.637 324.561 327 318.09L350.8 310.27L342.8 317.27C339.8 319.57 338.88 324.32 339.56 328.62L345.37 376.02L355.56 374.7C355.56 374.7 356.19 348.35 355.88 339.05C355.57 329.75 354.19 327.85 354.19 327.85L375.19 313.16C376.824 312.14 378.16 310.707 379.062 309.006C379.965 307.304 380.402 305.395 380.33 303.47L379.33 290.21L347.27 290.1Z"
        fill="black"
    />
    <path
        d="M384.1 242.63L384.04 242.87C380.87 239.07 368.68 235.15 368.68 235.15H356.44C356.44 235.15 344 237.73 341 241.72C335.79 248.72 330.83 263.44 329.67 270.17C328.54 276.74 338.51 283.64 345.31 282.28C345.42 288.18 345.23 290.61 345.23 290.61C352.79 294.41 365.94 294.86 379.31 290.44C379.286 287.632 379.453 284.825 379.81 282.04C385.67 281.56 394.36 280.04 396.98 275.1C401.09 267.45 384.1 242.63 384.1 242.63Z"
        fill="#32A0E6"
    />
    <path d="M356.22 229.09V237.42L359.96 244.67L368.68 237.08L368.96 223.3L356.22 229.09Z" fill="#F2A479" />
    <path
        d="M349.74 211C349.74 211 346.48 229.73 358.74 235.16C371.23 232.99 371.23 223.49 371.23 223.49C372.426 223.328 373.541 222.795 374.418 221.966C375.295 221.138 375.891 220.055 376.12 218.87C377.2 214.53 373.12 215.07 371.5 216.7C370.69 216.43 372.59 209.64 368.24 209.64C363.89 209.64 360.1 214.26 356.3 213.99C353.848 213.727 351.547 212.678 349.74 211V211Z"
        fill="#FFC39A"
    />
    <path d="M355.61 264.7L346.61 264.45L349.5 282.45L358.01 282.51L355.61 264.7Z" fill="black" />
    <path d="M345.68 275.1L347.38 269.15L348.74 275.78L358.01 282.51L349.5 282.45L345.34 282.07L345.68 275.1Z" fill="#F2A479" />
    <path d="M366.42 270.85L359.96 264.73L356.73 269.83L359.11 269.15L359.62 275.44L366.08 277.82L366.42 270.85Z" fill="#F2A479" />
    <path d="M379.84 282C379.84 282 371.74 282.14 366.08 277.78C369.02 285.43 379.45 284.51 379.45 284.51L379.84 282Z" fill="#1A5887" />
    <path d="M371.06 270.73C371.06 270.73 382.28 272.09 384.44 271.07C386.6 270.05 386.02 263.48 382.51 258.27C383.08 262.69 383.87 267.79 382.28 268.58C380.69 269.37 371.06 270.73 371.06 270.73Z" fill="#1A5887" />
    <path d="M346 273.06C346 273.06 339.77 271.75 339.2 269.49C338.63 267.23 342.26 260.87 342.26 260.87C342.26 260.87 338.31 270.17 346 273.06Z" fill="#1A5887" />
</svg>
