<svg width="1133" height="791" fill="none" xmlns="http://www.w3.org/2000/svg"><g clip-path="url(#a)"><path d="M291.888 784.784c-156.349.721-283.60675 3.829-283.60675 3.829S159.125 495.781 291.058 604.674C422.99 713.567 574.469 786.003 574.469 786.003s-126.233-1.939-282.581-1.219Z" fill="#E6E6E6"/><path d="M650.866 743.735c-207.789.958-376.921 4.028-376.921 4.028s201.04-266.298 376.167-167.637c175.127 98.662 376.308 164.168 376.308 164.168s-167.765-1.517-375.554-.559Z" fill="#E6E6E6"/><path d="M283.61 787.587C127.261 788.308 0 790.674 0 790.674S151.24 583.763 283.024 660.45c131.783 76.688 283.164 127.615 283.164 127.615s-126.23-1.198-282.578-.478Z" fill="#F2F2F2"/><path d="M237.612 355.718v-5.561c0-.719.174-1.428.507-2.066.334-.637.817-1.184 1.409-1.594.591-.41 1.273-.67 1.987-.759.714-.088 1.439-.002 2.113.251 18.3 6.856 77.204 24.072 160.823.803 1.297-.364 2.661-.424 3.985-.174 1.323.25 2.571.804 3.646 1.616 1.074.813 1.946 1.864 2.547 3.07.601 1.205.914 2.534.916 3.881.003 1.607-.467 3.18-1.351 4.522-.884 1.343-2.143 2.396-3.62 3.029-18.261 7.786-84.936 31.128-168.462-.529-1.32-.497-2.457-1.384-3.261-2.543-.804-1.159-1.236-2.536-1.239-3.946Z" fill="#000"/><path opacity=".2" d="M237.612 355.718v-5.561c0-.719.174-1.428.507-2.066.334-.637.817-1.184 1.409-1.594.591-.41 1.273-.67 1.987-.759.714-.088 1.439-.002 2.113.251 18.3 6.856 77.204 24.072 160.823.803 1.297-.364 2.661-.424 3.985-.174 1.323.25 2.571.804 3.646 1.616 1.074.813 1.946 1.864 2.547 3.07.601 1.205.914 2.534.916 3.881.003 1.607-.467 3.18-1.351 4.522-.884 1.343-2.143 2.396-3.62 3.029-18.261 7.786-84.936 31.128-168.462-.529-1.32-.497-2.457-1.384-3.261-2.543-.804-1.159-1.236-2.536-1.239-3.946Z" fill="#000"/><path d="M237.612 346.268v9.07c0 .522.126 1.036.37 1.498.243.461.596.857 1.027 1.151.431.294.928.479 1.446.538.519.058 1.044-.011 1.53-.201 16.576-6.492 79.178-26.415 168.988.45.531.158 1.092.189 1.638.092.545-.097 1.061-.321 1.505-.652.444-.332.804-.763 1.052-1.258.248-.496.378-1.042.377-1.597v-6.525c.001-1.716-.504-3.393-1.452-4.823-.948-1.429-2.296-2.548-3.877-3.215-18.885-7.985-86.004-31.079-169.771 1.319-.836.327-1.553.898-2.059 1.639-.505.741-.775 1.617-.774 2.514Z" fill="#000"/><path d="M173.834 540.732c7.5 7.302 8.417 18.526 8.417 18.526s-11.245-.614-18.746-7.915c-7.501-7.302-8.417-18.526-8.417-18.526s11.245.614 18.746 7.915ZM464.565 533.592c-7.853 6.921-19.115 6.977-19.115 6.977s1.471-11.165 9.325-18.086c7.853-6.921 19.115-6.977 19.115-6.977s-1.471 11.165-9.325 18.086ZM514.565 653.592c-7.853 6.921-19.115 6.977-19.115 6.977s1.471-11.165 9.325-18.086c7.853-6.921 19.115-6.977 19.115-6.977s-1.471 11.165-9.325 18.086ZM602.565 658.592c-7.853 6.921-19.115 6.977-19.115 6.977s1.471-11.165 9.325-18.086c7.853-6.921 19.115-6.977 19.115-6.977s-1.471 11.165-9.325 18.086ZM108.327 652.644c-9.3405-4.725-13.5702-15.163-13.5702-15.163s10.9142-2.775 20.2552 1.95c9.34 4.726 13.57 15.163 13.57 15.163s-10.914 2.776-20.255-1.95Z" fill="#FF4F00"/><path d="M597.23 67.8802c-16.526 5.2342-33.736 7.9918-51.07 8.1831 19.227-8.8062 34.595-24.3038 43.239-43.6036-18.046 8.2175-37.374 13.2628-57.134 14.9143-10.435-13.9582-24.83-24.4524-41.311-30.1171s-34.286-6.2375-51.097-1.6439c-16.811 4.5935-31.851 14.1408-43.161 27.3994-11.311 13.2586-18.369 29.6146-20.256 46.9397-.763 6.6285-.743 13.3239.06 19.9479-34.155-5.482-66.77-18.1025-95.718-37.0391C251.834 53.9244 227.203 29.0975 208.497 0c-13.138 17.8181-18.991 39.9747-16.365 61.9569 2.626 21.9821 13.533 42.1361 30.5 56.3581-13.723-1.854-26.783-7.04-38.039-15.105l-.118 1.069c-2.2 19.943 2.568 40.033 13.495 56.86 10.926 16.827 27.338 29.356 46.451 35.459-7.632 1.195-15.388 1.373-23.067.529-5.45-.591-10.826-1.727-16.049-3.391 3.624 17.772 12.712 33.966 25.995 46.317 13.282 12.351 30.093 20.24 48.081 22.564-33.222 20.667-72.438 29.541-111.321 25.19-6.882-.768-13.713-1.942-20.456-3.515 24.056 19.73 51.693 34.635 81.394 43.899 22.386-19.735 72.744-29.867 129.603-23.607 18.037 1.932 35.852 5.555 53.211 10.822 79.357-39.062 128.011-119.49 136.471-196.339.413-3.745.736-7.499.96-11.174 18.244-10.3821 34.494-23.9315 47.987-40.0128Z" fill="#1DA1F3"/><path d="m261.943 351.761-24.902 295.493 1.993.168 24.902-295.493-1.993-.168ZM384.808 351.655l-1.964.374 56.252 295.5 1.965-.374-56.253-295.5ZM286.873 374.776l-8.787 272.534 1.999.065 8.787-272.534-1.999-.065ZM364.458 375.602l-1.994.151 20.617 271.665 1.994-.152-20.617-271.664Z" fill="#000"/><path d="M339.078 665.342c59.095 0 107-8.059 107-18s-47.905-18-107-18c-59.094 0-107 8.059-107 18s47.906 18 107 18Z" fill="#000"/><path d="m381.037 697.678-7.338 14.957s-13.264-1.693-7.902 15.804c0 0-1.411 13.264-4.233 16.086-2.822 2.822 2.258 21.448 12.417 16.086 5.715-3.016 6.072-6.478 5.291-8.931-1.213-3.657-1.449-7.568-.686-11.344 1.121-5.682 3.189-11.135 6.119-16.13 6.491-10.442 12.7-20.602 12.7-20.602l-16.368-5.926Z" fill="#FFB8B8"/><path d="M362.692 605.677s-16.086-3.951-21.448-1.129c-5.362 2.822-21.166 3.104-21.166 3.104s-13.264 21.448-10.16 32.455c3.104 11.006 16.086 17.779 16.086 17.779l43.743.282 7.055-28.786s-3.386-19.754-6.208-20.883c-2.822-1.129-7.902-2.822-7.902-2.822ZM348.3 531.173c13.248 0 23.988-10.74 23.988-23.988 0-13.249-10.74-23.988-23.988-23.988-13.249 0-23.988 10.739-23.988 23.988 0 13.248 10.739 23.988 23.988 23.988Z" fill="#000"/><path d="M333.342 527.786s2.822 11.853-1.411 13.264c-4.233 1.411-7.902 7.055-7.902 7.055l6.209 10.442 21.166 5.362 6.491-6.209 4.797-13.264-4.797-3.386s-4.516 1.411-4.798-3.104c-.135-3.389-.04-6.784.282-10.16h-20.037Z" fill="#FFB8B8"/><path opacity=".1" d="M333.342 527.786s2.822 11.853-1.411 13.264c-4.233 1.411-7.902 7.055-7.902 7.055l6.209 10.442 21.166 5.362 6.491-6.209 4.797-13.264-4.797-3.386s-4.516 1.411-4.798-3.104c-.135-3.389-.04-6.784.282-10.16h-20.037Z" fill="#000"/><path d="M344.207 535.547c9.508 0 17.215-7.708 17.215-17.215 0-9.508-7.707-17.215-17.215-17.215-9.507 0-17.215 7.707-17.215 17.215 0 9.507 7.708 17.215 17.215 17.215Z" fill="#FFB8B8"/><path d="m343.22 557.701-16.368-14.958s-7.338 6.209-8.185 6.209c-.846 0-11.852 3.387-12.135 4.798-.282 1.411 9.596 16.368 9.596 16.368s-2.258 11.006 0 15.804c2.257 4.797.564 25.399.564 25.399s14.957-5.362 22.859-2.822c7.902 2.54 31.044 0 31.044 0s3.386-21.731 1.975-24.553c-1.411-2.822-1.693-18.908-1.693-18.908l12.135-13.264s-2.54-10.16-12.135-10.724c-9.595-.564-15.522-1.129-15.522-1.129l-12.135 17.78Z" fill="#FF4F00"/><path d="M324.029 627.125s-31.608-14.393-44.307-21.166c-12.7-6.773-32.172-1.411-25.964 13.828 6.209 15.24 40.921 30.197 40.921 30.197s11.289 8.466 18.062 8.184c6.773-.282 16.509-.141 16.509-.141l-5.221-30.902ZM372.852 629.1s56.724.565 53.056 21.731c-3.669 21.166-25.399 56.442-29.35 57.289-3.951.847-18.344-5.362-18.344-7.338 0-1.975 13.828-38.381 13.828-38.381l-33.865-10.441 14.675-22.86Z" fill="#000"/><path d="M383.577 565.885s3.386 32.454 1.693 37.534c-1.693 5.08-7.62 18.908-15.24 25.681-7.619 6.774-18.343 40.921-24.27 24.553-5.926-16.368 9.595-25.399 9.595-25.399l15.559-21.891.146-35.625 12.517-4.853Z" fill="#FFB8B8"/><path d="M320.078 633.898s27.939 9.877 31.043 8.466c3.104-1.411 9.878 3.669 9.878 3.669 3.13-.67 6.361-.716 9.509-.135 3.148.582 6.15 1.778 8.834 3.522 9.031 5.926 11.007 12.699 9.031 12.981-1.975.283-9.031-2.822-9.031-2.822s-10.724-2.257-17.215-.282c-6.49 1.976-14.95-2.189-14.95-2.189l-34.437-7.688 7.338-15.522Z" fill="#FFB8B8"/><path opacity=".1" d="M320.078 633.898s27.939 9.877 31.043 8.466c3.104-1.411 9.878 3.669 9.878 3.669 3.13-.67 6.361-.716 9.509-.135 3.148.582 6.15 1.778 8.834 3.522 9.031 5.926 11.007 12.699 9.031 12.981-1.975.283-9.031-2.822-9.031-2.822s-10.724-2.257-17.215-.282c-6.49 1.976-14.95-2.189-14.95-2.189l-34.437-7.688 7.338-15.522Z" fill="#000"/><path d="m377.085 548.387 5.927 3.387s2.258 14.957 3.386 16.933c1.129 1.975-13.828 7.055-16.086 5.644-2.257-1.411-3.386-15.239-3.386-15.239l10.159-10.725Z" fill="#FF4F00"/><path opacity=".1" d="M281.839 611.321s17.215 7.337 22.013 8.466c4.797 1.129 20.303 14.338 20.303 14.338l-10.584 16.073s-10.848-1.343-16.775-2.472c-5.926-1.129-41.203-24.552-35.276-28.503 5.926-3.951 20.319-7.902 20.319-7.902Z" fill="#000"/><path d="M278.311 611.321s17.215 7.337 22.012 8.466c4.798 1.129 23.706 14.111 23.706 14.111l-9.313 18.061s-15.521-3.104-21.448-4.233c-5.926-1.129-41.203-24.552-35.276-28.503 5.926-3.951 20.319-7.902 20.319-7.902ZM352.956 514.945c13.248 0 23.988-10.739 23.988-23.988 0-13.248-10.74-23.988-23.988-23.988s-23.988 10.74-23.988 23.988c0 13.249 10.74 23.988 23.988 23.988Z" fill="#000"/><path d="M359.729 478.258c6.234 0 11.288-5.054 11.288-11.289 0-6.234-5.054-11.288-11.288-11.288-6.235 0-11.289 5.054-11.289 11.288 0 6.235 5.054 11.289 11.289 11.289ZM361.499 590.425h-10.842c-.872 0-1.579.707-1.579 1.579v23.676c0 .872.707 1.579 1.579 1.579h10.842c.872 0 1.579-.707 1.579-1.579v-23.676c0-.872-.707-1.579-1.579-1.579Z" fill="#000"/><path d="M356.078 598.592c1.289 0 2.334-1.045 2.334-2.333 0-1.289-1.045-2.334-2.334-2.334-1.288 0-2.333 1.045-2.333 2.334 0 1.288 1.045 2.333 2.333 2.333Z" fill="#FF4F00"/><path d="M306.532 578.02s.282 34.994 4.516 39.227c4.233 4.234 31.031 2.095 31.031 2.095s16.917 2.738 24-7c8-11-21-2-21-2s-20.717 1.039-21.896.132c-3.669-2.822-4.516-33.865-4.516-33.865l-12.135 1.411Z" fill="#FFB8B8"/><path d="M310.201 553.467h-3.669s-3.951 4.234-3.669 13.264c.282 9.031-3.387 14.675-1.129 15.522 2.258.847 13.519-3.635 13.392-2.382-.128 1.253 5.799-1.005 5.799-1.005l-3.951-14.957-6.773-10.442Z" fill="#FF4F00"/><path d="M603.996 385.371c-46.277.214-83.944.897-83.944.897s44.773-59.307 83.776-37.334c39.003 21.973 83.807 36.562 83.807 36.562s-37.362-.338-83.639-.125ZM222.996 472.371c-46.277.214-83.944.897-83.944.897s44.773-59.307 83.776-37.334c39.003 21.973 83.807 36.562 83.807 36.562s-37.362-.338-83.639-.125ZM803.996 531.371c-46.277.214-83.944.897-83.944.897s44.773-59.307 83.776-37.334c39.003 21.973 83.807 36.562 83.807 36.562s-37.362-.338-83.639-.125ZM604.589 786.006c-156.349.721-283.61 3.031-283.61 3.031s151.27-200.373 283.042-126.136c131.773 74.236 283.146 123.526 283.146 123.526s-126.23-1.141-282.578-.421Z" fill="#F2F2F2"/><path d="M849.719 784.255c-156.347.721-283.607 3.391-283.607 3.391s151.077-242.12 282.921-152.235C980.877 725.295 1132.3 785.036 1132.3 785.036s-126.23-1.502-282.581-.781Z" fill="#F2F2F2"/></g><defs><clipPath id="a"><path fill="#fff" d="M0 0h1132.3v790.674H0z"/></clipPath></defs></svg>