<svg xmlns="http://www.w3.org/2000/svg" x="0" y="0" version="1.1" viewBox="0 0 1000 1000" xml:space="preserve">
  <style>
    .st1{fill:#fff}
  </style>
  <circle cx="500" cy="500" r="450" fill="#ff4f00"/>
  <g id="logo">
    <g id="center">
      <path d="M765.69 456.31c-35.01-24.97-71.44-44.13-71.44-44.13a25.45 25.45 0 01-5.14 3.05l12.65 17.03s26.12 27.86 40.25 39.47c14.12 11.61 4.55 33.07.08 40.24-4.48 7.18-7.21 21.28-8.26 47.5-.69 17.45-2.69 32.59 12.56 55.02 15.12-33.69 23.53-71.05 23.53-110.38-.01-16.3-1.46-32.28-4.23-47.8zM397.8 653.39c-2.37-4.75-23.55-49.02-26.56-52.79-1.2-1.5-4.55-4.89-8.14-8.41-.56 4.89-1.79 9.57-4.24 13.1-6.9 9.91-13.34 8.54-17.1 13.92-1.85 2.64-21.49 34.87-41 66.98 35.01 38.3 80.91 66.46 132.81 79.6 1.77-6.53 8.19-33.52-.48-54.96-9.94-24.57-32.92-52.7-35.29-57.44zM350.96 334.68c9.95.58 54.73-11.67 68.86-7.46 14.12 4.21 67.16 45.78 71.4 53.46 4.24 7.68 9.41 41.83 8.99 48.81-.04.58-.12 1.11-.25 1.59-.03.12-.08.22-.12.34.21 1.01.39 1.99.53 2.92.14-.93.32-1.91.53-2.92-.04-.11-.08-.22-.12-.34-.13-.48-.21-1.01-.25-1.59-.42-6.98 4.74-41.13 8.99-48.81 4.24-7.68 57.28-49.26 71.4-53.46 14.12-4.21 58.9 8.04 68.86 7.46 9.95-.58 50.82 11.23 50.82 11.23s9.24 1.91 21.3 4.5c-48.74-70.22-129.95-116.2-221.89-116.2-92.03 0-173.3 46.06-222.02 116.39 12.48-2.69 22.16-4.69 22.16-4.69s40.85-11.81 50.81-11.23zM306.48 412.18s-37.01 19.47-72.28 44.73c-2.7 15.33-4.12 31.11-4.12 47.21 0 39.58 8.52 77.16 23.82 111.03 15.73-22.79 13.7-38.06 13-55.68-1.04-26.22-3.78-40.32-8.26-47.5s-14.04-28.63.08-40.24c14.12-11.61 40.25-39.47 40.25-39.47l12.65-17.03a25.73 25.73 0 01-5.14-3.05zM641.89 605.29c-2.45-3.53-3.68-8.2-4.24-13.1-3.59 3.52-6.94 6.91-8.14 8.41-3.01 3.76-24.19 48.04-26.56 52.79-2.37 4.75-25.35 32.88-35.27 57.45-8.59 21.26-2.36 47.97-.52 54.79 51.83-13.27 97.65-41.54 132.56-79.91-19.41-31.95-38.87-63.87-40.71-66.5-3.78-5.39-10.22-4.02-17.12-13.93z" class="st1"/>
      <path d="M591.16 590.1c2.14-1.29 26.12-25.93 27.39-27.13 1.27-1.2 18.1-22.23 24.08-28.52 5.98-6.29 8.19-.5 8.04-.16 3.97-9.04 8.14-17.84 11.27-23.78 8.28-15.69 2.89-35.65 2.89-35.65-8.1-6.48-9.56-24.3-9.56-24.3-5.16-3.69-16.66-17.08-16.66-17.08-40.34-26.1-33.03-36.23-33.03-36.23-7.87 1.93-12.44.33-12.44.33.37 1.72-10.07 5.87-30.27 9.17s-20.43-3.53-20.43-3.53c.33 2.95-4.57 4.73-4.57 4.73 2.22 8.89-6.04 21.59-8.49 24.85-2.45 3.26 2.89 14.97-1.58 26.89-4.48 11.92-17.69 8.47-21.01 7.08-2.82-1.18-5.45-14.33-6.42-23.4-.97 9.07-3.6 22.22-6.42 23.4-3.32 1.39-16.53 4.84-21.01-7.08s.87-23.63-1.58-26.89c-2.45-3.26-10.71-15.96-8.49-24.85 0 0-4.9-1.78-4.57-4.73 0 0-.23 6.83-20.43 3.53-20.2-3.3-30.64-7.45-30.27-9.17 0 0-4.57 1.6-12.44-.33 0 0 7.31 10.13-33.03 36.23 0 0-11.51 13.39-16.66 17.08 0 0-1.45 17.82-9.56 24.3 0 0-5.38 19.97 2.89 35.65 3.14 5.94 7.3 14.75 11.27 23.78-.15-.33 2.06-6.13 8.04.16 5.98 6.29 22.8 27.32 24.08 28.52 1.27 1.2 25.25 25.83 27.39 27.13 2.14 1.29 23.86 22.52 25.74 23.07 1.87.56 52.61 32.57 61.68 68.91 2.33 9.35 3.27 19.98 3.38 30.6.11-10.63 1.04-21.25 3.38-30.6 9.06-36.34 59.81-68.35 61.68-68.91 1.85-.56 23.58-21.78 25.72-23.07zm-27.89-27.4s1.44-1.97-1.57-5.37c-2.29-2.59-1.61-7.07-1.15-9.07-.28.4-.55.8-.82 1.2a77.588 77.588 0 00-5.33 9.17c1.24.24 5.67 1.44 7.85 6.43 2.56 5.83-5.18 10.09-5.18 10.09s1.05-6.49-2.03-9.5c-1.67-1.63-1.81-3.57-1.6-5.01-1.53 3.41-2.68 6.76-3.41 10.02 0 .02.01.03.01.03s4.39 3.41 3.08 6.88c-1.31 3.47-10.48 9.04-10.81 11.2 0 0-2.68-12.02 2.49-15.72 2.54-1.82 3.84-2.42 4.52-2.56.66-2.91 1.65-5.9 2.93-8.93-.82 1.13-2.17 2.28-4.31 2.38-4.3.22-7.82 5.77-7.82 5.77s-2.97-8.31 2.81-10.99c5.35-2.48 9.74.12 10.35.52 1.57-3.32 3.48-6.69 5.77-10.1-1.29 1.23-5.13 4.52-8.77 3.75-4.45-.95-5.45 1.28-5.45 1.28s.72-8.31 6.29-8.98c5.07-.61 7.85 2.78 8.31 3.39 2.19-3.22 4.49-6.15 6.68-8.72-1.02-.2-2.25-.32-3.06-.02-1.62.6-3.4 5.97-13.38 3.25 0 0-11.07 10.33-16.76 24.85-5.68 14.52-17.91 28.7-35.7 13.18 0 0-10.04 2.9-6.47 17.55 3.57 14.65-2.03 21.67-4.77 15.4 0 0-5.97 12.44-10.35-1.58 0 0-8.17 9.48-9.15-4.56 0 0-10.09 4.65-6.9-6.36 0 0-11.69 1.37-3.81-9.25 0 0-10.6-5.47-1.58-11.11s13.45 1.08 28.12-11.98c14.67-13.07 13.14-13.02 13.14-13.02s-6.69.62-3.39-3.52c0 0-21.51 9.64-15.65-11.6 0 0-23.03-6.1-11.12-16.93 0 0-23.53-12.21-8.81-17.73 0 0-14.59-12.62-5.02-12.89 0 0-9.21-12.44-.92-13.45 0 0-4.56-15.92-.91-13.72 3.65 2.2 7.3 20.18 29.37 28.81 22.07 8.63 25.16 13.35 28.74 24.39 1.4 4.32 2.54 8.97 4.89 12.2 2.84-2.71 2.03-4.42 2.03-4.42-8.69-20.88 1.13-15.56 1.13-15.56-1.12-1.56-2.12-5.63-2.12-5.63-3.5-15.96 7.33-6.03 7.33-6.03-3.1-21.47 6.54-14.34 6.54-14.34-1.78-19.34 8.49-7.78 8.49-7.78 2.06-19.31 18.91-22.37 18.91-22.37-11.58 7.52-13.53 27.79-13.48 47.83.05 20.04-9.33 28.72-9.33 28.72-.31.35-.62.68-.93.99 2.02-.89 4.23-2.01 6.68-3.4 24.68-14.09 27.43-4.49 28.38 2.81.39 2.99.74 4.82 1.01 5.95 5.13-5.86 9.34-9.48 9.41-9.53l.48.56c-.06.05-4.41 3.79-9.65 9.82.26.84.42.95.42.95s-.41-.13-1-.28a104.1 104.1 0 00-5.68 7.24c1.23.22 4.97 1.22 6.76 5.51 2.15 5.17-4.73 9.89-4.73 9.89z" class="st1"/>
    </g>
    <g id="round">
      <g id="text">
        <path d="M412.14 806.28c3.42 3.07 5.69 6.36 6.82 9.87 1.13 3.51 1.22 6.91.25 10.19-.18.53-.53.92-1.06 1.19-.53.26-1.09.29-1.69.09l-4.86-1.64c-1.19-.4-1.79-1.34-1.81-2.82.34-2.98-.55-5.95-2.67-8.91-2.13-2.97-5.8-5.33-11.02-7.09-5.61-1.9-10.15-2.33-13.59-1.28-3.45 1.04-5.76 3.31-6.94 6.82-.76 2.25-.71 4.32.15 6.24.86 1.91 2.45 3.87 4.76 5.86 2.31 1.99 5.87 4.69 10.68 8.08 4.6 3.17 8.12 6.1 10.57 8.76 2.45 2.67 4.02 5.46 4.73 8.39.71 2.93.43 6.24-.82 9.94-1.21 3.57-3.24 6.43-6.11 8.59s-6.39 3.43-10.57 3.82c-4.18.39-8.75-.25-13.7-1.93-5.15-1.74-9.26-4.14-12.31-7.2-3.05-3.06-5.07-6.28-6.06-9.67-.99-3.39-1.08-6.49-.27-9.31.2-.59.57-1.02 1.1-1.29.53-.26 1.09-.29 1.69-.09l4.95 1.68c.53.18.97.51 1.32 1 .35.49.51 1.09.49 1.82-.56 2.97.23 5.86 2.38 8.65s5.31 4.89 9.47 6.29c4.49 1.52 8.36 1.85 11.59.99 3.24-.86 5.43-3 6.6-6.44.78-2.31.81-4.4.08-6.27-.73-1.87-2.18-3.79-4.34-5.77-2.16-1.98-5.44-4.53-9.84-7.64-5.08-3.48-8.95-6.56-11.62-9.23-2.67-2.67-4.4-5.45-5.19-8.33s-.56-6.17.69-9.87c2.1-6.21 6.1-10.25 12-12.12 5.9-1.87 12.88-1.44 20.94 1.28 5.38 1.83 9.8 4.28 13.21 7.35zM369.14 790.78c.15.57.09 1.1-.19 1.58l-.76.89-56.39 45.55c-1.25 1.05-2.6 1.15-4.05.31l-5.79-3.36c-1.45-.84-2.03-2.06-1.74-3.67l11.5-71.57.4-1.1c.28-.48.72-.79 1.32-.93.6-.13 1.14-.06 1.63.22l4.25 2.47c.6.35 1.01.8 1.21 1.36.2.56.26 1.06.17 1.49l-2.49 15.97 29.96 17.37 12.53-10.15c1.08-.75 2.13-.82 3.15-.23l4.34 2.52c.48.28.79.71.95 1.28zm-27.97 12.57l-24.8-14.38-6.44 39.68 31.24-25.3zM306.22 753.08c.02.64-.21 1.22-.69 1.72l-46.83 49.73c-.53.56-1.1.86-1.71.9-.61.04-1.2-.2-1.76-.73l-3.58-3.37c-.91-.86-1.19-1.84-.83-2.93l13.11-46.43-45.71 15.73c-1.12.38-2.09.19-2.9-.58l-3.58-3.37c-.56-.53-.83-1.1-.83-1.71.01-.62.27-1.21.8-1.76l46.83-49.74c.48-.51 1.04-.77 1.68-.79.64-.02 1.22.21 1.72.69l3.5 3.3c.51.48.76 1.02.75 1.64-.01.62-.25 1.18-.73 1.69l-35.64 37.85 36.76-12.95c1.51-.59 2.83-.36 3.94.7l2.28 2.15c1.07 1 1.38 2.3.93 3.89l-10.79 37.4 35.64-37.85c.48-.51 1.04-.77 1.68-.79.64-.02 1.22.21 1.72.69l3.43 3.23c.53.5.79 1.05.81 1.69zM250.54 696.77c-.14.6-.5 1.1-1.07 1.49l-56.49 38.42c-.63.43-1.26.6-1.87.51-.61-.09-1.11-.42-1.5-1l-24.18-35.55c-.43-.63-.59-1.27-.47-1.9.12-.63.5-1.16 1.13-1.59l3.11-2.12c.58-.39 1.17-.52 1.77-.38.6.14 1.12.53 1.55 1.16l20.06 29.5 19.29-13.12-18.77-27.6c-.43-.63-.59-1.27-.47-1.9.12-.63.5-1.16 1.13-1.59l2.94-2c.58-.39 1.18-.53 1.81-.41.63.12 1.16.5 1.59 1.13l18.77 27.6 19.98-13.59-20.53-30.19c-.43-.63-.59-1.27-.47-1.9.12-.63.5-1.16 1.13-1.59l3.11-2.12c.58-.39 1.19-.51 1.84-.36.65.15 1.17.51 1.56 1.09L250.16 695c.39.58.52 1.16.38 1.77zM217.8 646.53c-.26.56-.71.97-1.35 1.24l-63.05 26.29c-.71.3-1.35.34-1.93.12-.58-.21-1-.64-1.27-1.28l-1.77-4.25c-.27-.64-.34-1.18-.22-1.61.12-.43.31-.88.56-1.37l36.34-53.12-48.86 20.37c-.71.3-1.36.32-1.95.08-.59-.24-1.02-.69-1.29-1.33l-1.81-4.35c-.3-.71-.32-1.36-.08-1.95.25-.59.72-1.04 1.43-1.33l62.96-26.25c.64-.27 1.28-.29 1.9-.06.63.23 1.07.67 1.34 1.31l1.81 4.35c.46 1.1.33 2.05-.39 2.88l-35.86 52.92 48.47-20.21c.64-.27 1.26-.28 1.85-.04.59.24 1.02.69 1.29 1.33l1.85 4.44c.29.65.29 1.25.03 1.82zM184.13 543.88L120 574.97l-1.12.34c-.55.06-1.06-.1-1.53-.51-.47-.4-.73-.88-.8-1.43l-.58-4.99c-.09-.76.03-1.39.36-1.88.33-.49.73-.84 1.2-1.03l57.07-27.44-61.83-13.82c-.5-.08-.97-.33-1.4-.73-.43-.4-.69-.99-.78-1.75l-.58-4.99c-.06-.55.09-1.06.46-1.53s.83-.73 1.38-.79c.49-.06.87-.06 1.16-.03l69.52 15.67c1.88.48 2.93 1.63 3.13 3.43l.73 6.34c.21 1.8-.54 3.15-2.26 4.05zM177.24 493.35c-5.19 4.51-12.6 6.49-22.21 5.92-2.09-.11-5.05-.34-8.87-.68-3.82-.34-6.73-.63-8.74-.88-9.42-1.11-16.34-4.43-20.76-9.97-4.41-5.54-6.24-12.64-5.47-21.33.77-8.68 3.81-15.35 9.11-19.99 5.31-4.64 12.7-6.69 22.18-6.13 4.04.22 6.97.4 8.77.56 1.74.15 4.68.48 8.84.99 9.56 1.12 16.51 4.34 20.83 9.66 4.33 5.32 6.09 12.49 5.3 21.52s-3.79 15.82-8.98 20.33zm-3.54-34.86c-3.07-3.63-8.07-5.89-15-6.78-4.16-.51-6.93-.82-8.32-.94-1.53-.13-4.31-.31-8.36-.53-6.97-.33-12.31 1.02-16.01 4.05-3.7 3.04-5.79 7.33-6.28 12.89-.49 5.56.82 10.17 3.93 13.84 3.11 3.67 8.13 5.91 15.05 6.74 2.01.25 4.78.53 8.33.84 3.48.31 6.26.52 8.35.63 6.97.4 12.28-.91 15.94-3.95s5.74-7.37 6.24-13c.5-5.57-.8-10.16-3.87-13.79zM185.99 425.71c-6.02 3.34-13.67 3.73-22.95 1.18-2.02-.55-4.87-1.38-8.53-2.5-3.67-1.12-6.46-2.01-8.37-2.67-8.99-3.04-15.06-7.73-18.23-14.06s-3.47-13.66-.92-22c2.55-8.34 6.91-14.22 13.07-17.66 6.16-3.44 13.81-3.9 22.97-1.39 3.91 1.05 6.73 1.84 8.46 2.37 1.67.51 4.48 1.45 8.44 2.8 9.12 3.09 15.25 7.68 18.37 13.78 3.13 6.1 3.36 13.49.71 22.15-2.67 8.66-7.01 14.67-13.02 18zm3.77-34.84c-2.25-4.19-6.67-7.44-13.26-9.75-3.96-1.36-6.61-2.24-7.94-2.65-1.47-.45-4.15-1.2-8.06-2.25-6.75-1.78-12.25-1.56-16.5.64s-7.19 5.97-8.82 11.3c-1.64 5.34-1.31 10.12.96 14.36 2.28 4.24 6.72 7.47 13.33 9.72 1.91.66 4.57 1.51 7.97 2.55 3.33 1.02 6.01 1.81 8.03 2.35 6.73 1.84 12.2 1.66 16.42-.55 4.22-2.21 7.15-6.02 8.8-11.42 1.64-5.34 1.33-10.11-.93-14.3zM211.24 367.94c-.6.15-1.2.05-1.81-.29l-59.76-33.1c-.67-.37-1.1-.85-1.3-1.44-.19-.59-.12-1.18.22-1.79L160.95 309c3.85-6.96 8.5-11.5 13.94-13.62 5.44-2.13 11.28-1.47 17.5 1.98 4.64 2.57 7.81 5.84 9.51 9.81 1.71 3.97 1.99 8.36.85 13.15l32.24-.56c.47.02.85.11 1.16.28.49.27.81.69.98 1.26.16.57.11 1.1-.16 1.58l-2.23 4.03c-.51.92-1.12 1.52-1.83 1.8s-1.59.42-2.62.4l-30.88.48-9.02 16.29 23.79 13.18c.61.34 1 .83 1.16 1.48.16.65.07 1.28-.27 1.89l-2.43 4.39c-.33.6-.8.98-1.4 1.12zm-19.84-41.59c5.1-9.21 3.78-15.97-3.97-20.26-7.75-4.29-14.17-1.83-19.28 7.38l-8.51 15.37 23.25 12.87 8.51-15.36zM268.48 281.06l-64.37-30.6-.96-.66c-.4-.39-.59-.9-.56-1.51.02-.62.23-1.12.62-1.52l3.53-3.57c.54-.54 1.11-.84 1.7-.9.59-.05 1.11.05 1.55.29l57.1 27.38-27.88-56.89c-.25-.44-.35-.96-.3-1.55.05-.59.34-1.16.88-1.71l3.53-3.57c.39-.4.88-.6 1.48-.6.59 0 1.09.19 1.48.59.35.34.6.64.74.88l31.25 64.05c.8 1.77.56 3.3-.72 4.59l-4.49 4.54c-1.27 1.28-2.8 1.54-4.58.76zM304.55 249.88c-.6-.14-1.09-.51-1.48-1.09l-37.81-56.9c-.42-.64-.59-1.26-.49-1.87.1-.61.44-1.11 1.02-1.49l21.26-14.13c6.62-4.4 12.84-6.29 18.65-5.67 5.81.62 10.69 3.89 14.62 9.81 2.93 4.42 4.24 8.78 3.93 13.09-.32 4.31-2.08 8.33-5.3 12.06l28.88 14.35c.41.23.71.5.9.78.31.47.4.99.29 1.57s-.41 1.03-.87 1.33l-3.83 2.55c-.87.58-1.69.83-2.45.75-.76-.08-1.6-.36-2.51-.84l-27.63-13.79-15.51 10.31 15.05 22.65c.39.58.5 1.2.35 1.84-.16.65-.52 1.17-1.1 1.55l-4.18 2.78c-.6.39-1.19.51-1.79.36zm1.55-46.06c8.77-5.83 10.71-12.43 5.8-19.81-4.9-7.38-11.74-8.15-20.51-2.32l-14.64 9.73 14.71 22.13 14.64-9.73zM360.87 215.67c-.57-.23-1.01-.66-1.31-1.29l-29.3-61.83c-.3-.63-.36-1.24-.17-1.83.18-.59.59-1.03 1.22-1.33l4.73-2.24c.69-.33 1.32-.39 1.88-.2.56.2 1 .65 1.33 1.34l29.3 61.83c.3.63.34 1.25.12 1.85-.22.61-.64 1.06-1.27 1.35l-4.73 2.24c-.63.31-1.23.34-1.8.11zM385.25 200.09c-5.87-2.08-10.01-6.54-12.43-13.39-.19-.6-.15-1.18.12-1.74.26-.56.7-.93 1.3-1.12l5.1-1.58c1.46-.45 2.54.05 3.21 1.52 1.75 4.21 4.4 6.89 7.98 8.04 3.57 1.15 7.56 1.05 11.95-.32 5.06-1.57 8.46-4.45 10.19-8.64 1.73-4.19 1.71-9.11-.05-14.77l-11.12-35.76-35.66 11.09c-.67.21-1.28.16-1.85-.14-.57-.3-.95-.78-1.16-1.45l-1.18-3.8c-.21-.67-.16-1.28.14-1.85.3-.57.78-.95 1.45-1.16l42.86-13.32c.73-.23 1.38-.19 1.95.11.57.3.96.82 1.19 1.55l13.04 41.96c1.66 5.33 2.09 10.31 1.3 14.93-.79 4.63-2.77 8.64-5.95 12.04-3.18 3.4-7.4 5.92-12.66 7.55-7.29 2.24-13.85 2.33-19.72.25zM444.54 187.04c-.46-.41-.72-.97-.78-1.66l-6.13-68.04c-.07-.76.09-1.39.46-1.88.38-.49.91-.76 1.61-.83l5-.45c.76-.07 1.39.1 1.88.51.49.41.77 1 .84 1.76l2.61 28.97 36.26-3.27-2.61-28.97c-.07-.76.1-1.39.51-1.88.41-.49.96-.77 1.66-.83l5-.45c.76-.07 1.39.1 1.88.51.49.41.77 1 .84 1.76l6.13 68.04c.06.69-.13 1.29-.57 1.78-.45.5-1.02.77-1.71.84l-5 .45c-.7.06-1.29-.11-1.78-.52-.49-.41-.77-.96-.83-1.66l-2.71-30.01-36.26 3.27 2.71 30.01c.06.69-.13 1.29-.57 1.79-.45.5-1.02.77-1.71.84l-5 .45c-.7.05-1.27-.12-1.73-.53zM515.41 182.93c-.36-.5-.5-1.09-.42-1.79l7.99-67.84c.09-.76.37-1.34.84-1.74.47-.4 1.05-.56 1.74-.48l42.7 5.03c.76.09 1.34.39 1.74.89.4.51.55 1.14.46 1.9l-.44 3.74c-.08.69-.37 1.22-.87 1.58-.5.36-1.13.5-1.89.41l-35.43-4.17-2.73 23.17 33.14 3.91c.76.09 1.34.39 1.74.89.4.5.55 1.14.46 1.9l-.42 3.53c-.08.69-.38 1.24-.88 1.64-.5.4-1.14.55-1.9.46l-33.14-3.91-2.83 24 36.26 4.27c.76.09 1.34.39 1.74.89.4.5.55 1.14.46 1.9l-.44 3.74c-.08.69-.39 1.24-.93 1.63-.54.39-1.15.55-1.85.47l-43.53-5.13c-.68-.1-1.21-.39-1.57-.89zM575.55 192.39c-.29-.54-.35-1.15-.18-1.83l17.11-66.25c.17-.67.52-1.18 1.04-1.51.52-.33 1.11-.41 1.79-.24l5.06 1.31c.74.19 1.26.54 1.57 1.05.3.51.36 1.14.16 1.88L585 193.05c-.17.68-.54 1.18-1.09 1.5-.55.33-1.17.4-1.84.23l-5.07-1.31c-.67-.18-1.16-.54-1.45-1.08zM600.77 198.54c-.21-.58-.18-1.19.1-1.83l26.75-62.86c.3-.71.73-1.18 1.29-1.44.56-.25 1.17-.24 1.81.03l21.76 9.26c9.69 4.12 15.76 9.27 18.22 15.43 2.46 6.16 1.89 13.63-1.69 22.42-.73 1.89-1.76 4.41-3.1 7.55-1.34 3.15-2.45 5.67-3.33 7.56-2.72 6.04-5.81 10.58-9.26 13.62-3.45 3.04-7.54 4.66-12.24 4.85-4.71.2-10.3-1.09-16.78-3.84l-22.24-9.46c-.66-.28-1.08-.71-1.29-1.29zm26.43 2.55c4.49 1.91 8.34 2.81 11.53 2.69 3.2-.12 5.95-1.26 8.27-3.42 2.32-2.16 4.51-5.49 6.58-9.99 1.77-3.8 2.86-6.18 3.26-7.14.44-1.03 1.38-3.43 2.84-7.21 2.6-6.47 3.08-11.82 1.43-16.05-1.65-4.23-5.81-7.76-12.49-10.6l-14.34-6.1-21.91 51.5 14.83 6.32zM683.53 240.63c-.04-.61.16-1.19.6-1.73l43.15-52.96c.48-.59 1.03-.94 1.64-1.02.61-.09 1.19.09 1.73.53l33.34 27.15c.59.49.92 1.05.99 1.68.06.64-.15 1.25-.63 1.85l-2.38 2.92c-.44.54-.97.83-1.58.87-.62.04-1.22-.19-1.82-.67l-27.66-22.53-14.73 18.09 25.87 21.08c.59.48.92 1.04.99 1.68.06.64-.14 1.25-.63 1.85l-2.25 2.76c-.44.54-.98.84-1.62.91-.64.07-1.25-.15-1.85-.63l-25.87-21.08-15.26 18.74 28.31 23.06c.59.48.92 1.04.99 1.68.06.64-.14 1.25-.63 1.85l-2.38 2.92c-.44.54-.99.83-1.66.88-.67.04-1.27-.16-1.81-.6l-33.99-27.68c-.53-.46-.82-.99-.86-1.6zM729.24 279.41c.09-.61.4-1.14.94-1.58l52.95-43.17c.59-.48 1.2-.71 1.82-.67.62.04 1.14.33 1.58.87l2.91 3.57c.44.54.66 1.03.67 1.48 0 .45-.05.94-.15 1.47l-19.69 61.27 41.03-33.45c.59-.48 1.21-.69 1.85-.63.64.06 1.18.37 1.62.91l2.97 3.65c.48.59.69 1.21.63 1.85-.07.64-.39 1.2-.99 1.68l-52.87 43.1c-.54.44-1.14.64-1.81.6-.67-.04-1.22-.33-1.66-.88l-2.97-3.65c-.75-.92-.9-1.88-.45-2.87l19.29-60.94-40.7 33.19c-.54.44-1.13.63-1.77.56-.64-.06-1.18-.37-1.62-.91l-3.04-3.73c-.46-.53-.63-1.11-.54-1.72zM790.84 368.2l52.5-48.19.97-.65c.51-.22 1.05-.21 1.61.05.56.25.95.63 1.18 1.15l1.98 4.61c.3.7.37 1.34.19 1.91-.17.57-.46 1.01-.85 1.33l-46.79 42.67 63.2-4.51c.5-.06 1.02.04 1.55.3.53.27.95.75 1.25 1.46l1.98 4.61c.22.51.22 1.04 0 1.59s-.59.93-1.1 1.15c-.45.19-.82.31-1.1.36l-71.09 4.95c-1.94.08-3.27-.72-3.99-2.38l-2.52-5.86c-.7-1.69-.37-3.2 1.03-4.55zM806.06 413.46c.36-.5.88-.83 1.56-.97l66.83-14.17c.75-.16 1.39-.08 1.92.23.53.32.87.81 1.01 1.5l8.92 42.06c.16.75.06 1.39-.28 1.93-.35.54-.9.89-1.65 1.04l-3.68.78c-.68.14-1.27.04-1.78-.32-.5-.36-.84-.91-.99-1.66l-7.4-34.9-22.82 4.84 6.92 32.65c.16.75.06 1.39-.29 1.93s-.9.89-1.65 1.04l-3.48.74c-.68.14-1.29.04-1.83-.31s-.89-.9-1.05-1.65l-6.92-32.65-23.64 5.01 7.58 35.72c.16.75.06 1.39-.28 1.93-.35.54-.9.89-1.65 1.04l-3.68.78c-.68.14-1.3.02-1.84-.36-.55-.38-.89-.92-1.03-1.6l-9.1-42.88c-.16-.66-.06-1.25.3-1.75zM817.16 472.43c.45-.42 1.02-.64 1.72-.65l68.31-.72c.77-.01 1.38.2 1.84.61.46.41.69.97.7 1.67l.27 25.52c.08 7.95-1.72 14.19-5.4 18.73-3.68 4.54-9.08 6.84-16.2 6.92-5.3.05-9.67-1.22-13.12-3.84-3.45-2.61-5.86-6.29-7.23-11.01l-27.76 16.4c-.42.21-.8.32-1.15.33-.56.01-1.05-.2-1.47-.61-.42-.41-.64-.9-.64-1.46l-.05-4.6c-.01-1.05.22-1.87.71-2.47.48-.6 1.17-1.15 2.08-1.64l26.62-15.66-.2-18.62-27.2.28c-.7.01-1.28-.23-1.73-.71-.46-.48-.69-1.07-.7-1.77l-.05-5.02c-.01-.7.21-1.26.65-1.68zm37.79 26.39c.11 10.53 4.59 15.75 13.45 15.66 8.86-.09 13.23-5.41 13.12-15.94l-.18-17.58-26.57.28.18 17.58zM816.21 537.39c.53-.32 1.13-.42 1.82-.28l67 13.31c.75.15 1.31.47 1.67.97.36.5.48 1.09.34 1.77l-5.56 28.01c-1.44 7.25-4.27 12.38-8.49 15.38-4.22 3-9.14 3.94-14.75 2.83-3.83-.76-6.85-2.29-9.06-4.57-2.21-2.29-3.66-4.75-4.35-7.37-2.02 2.65-4.73 4.68-8.14 6.06-3.41 1.39-7.06 1.69-10.95.92-3.83-.76-7.15-2.33-9.95-4.7-2.8-2.37-4.78-5.45-5.95-9.24s-1.28-8.04-.35-12.76l5.73-28.83c.14-.67.47-1.18.99-1.5zm1.66 30.62c-.87 4.38-.37 8.05 1.49 11.01 1.86 2.96 4.64 4.82 8.34 5.55 3.76.75 7.05.1 9.88-1.93 2.82-2.04 4.67-5.24 5.54-9.62l4-20.11-25.24-5.01-4.01 20.11zm33.44 5.58c-.88 4.45-.55 8.03 1.01 10.76 1.55 2.73 4.15 4.45 7.77 5.17 3.56.71 6.49.1 8.79-1.83 2.3-1.93 3.9-5.14 4.8-9.66l3.79-19.09-22.37-4.44-3.79 19.09zM800.43 602.78c.57-.24 1.18-.25 1.84-.01l64.47 22.9c.66.23 1.13.62 1.42 1.17.29.55.31 1.15.08 1.81l-1.75 4.93c-.26.72-.65 1.21-1.19 1.47-.53.25-1.16.25-1.89 0l-64.47-22.9c-.66-.23-1.12-.64-1.4-1.22-.28-.58-.3-1.2-.06-1.85l1.75-4.93c.23-.68.63-1.13 1.2-1.37zM792.13 627.28c.6-.16 1.2-.07 1.82.26l60.19 32.32c.68.36 1.11.84 1.32 1.42.2.58.14 1.18-.19 1.8l-2.18 4.06c-.33.61-.7 1.01-1.11 1.18-.41.17-.88.32-1.42.43l-64.14 5.34 46.64 25.04c.68.36 1.11.85 1.29 1.46.19.61.11 1.23-.22 1.84l-2.23 4.15c-.36.68-.85 1.1-1.47 1.29-.61.18-1.26.1-1.93-.27l-60.09-32.27c-.62-.33-1.03-.81-1.25-1.44-.22-.63-.16-1.25.17-1.87l2.23-4.15c.56-1.05 1.39-1.55 2.48-1.52l63.68-5.59-46.27-24.84c-.62-.33-1.01-.8-1.2-1.42-.19-.62-.11-1.23.22-1.84l2.28-4.24c.32-.6.78-.98 1.38-1.14zM757.96 687.13c.62-.02 1.19.19 1.72.65l51.79 44.55c.58.5.91 1.06.98 1.67.07.61-.12 1.18-.58 1.71l-15.42 17.93c-6.87 7.98-13.61 12.21-20.23 12.68-6.62.47-13.57-2.33-20.85-8.41-1.58-1.27-3.66-3.01-6.25-5.24-2.59-2.23-4.66-4.05-6.2-5.47-4.93-4.43-8.32-8.75-10.17-12.96-1.85-4.21-2.15-8.59-.91-13.14 1.24-4.55 4.16-9.49 8.75-14.83l15.76-18.32c.46-.52 1-.8 1.61-.82zm-10.44 24.41c-3.18 3.7-5.2 7.09-6.06 10.17-.86 3.08-.61 6.05.74 8.92 1.35 2.86 3.86 5.96 7.52 9.3 3.08 2.83 5.02 4.59 5.81 5.28.85.73 2.85 2.36 6.01 4.89 5.38 4.44 10.33 6.52 14.86 6.23 4.53-.29 9.16-3.19 13.89-8.68l10.16-11.82-42.43-36.5-10.5 12.21zM710.56 737.76c.61.07 1.15.37 1.6.9l44.61 51.87c.45.53.67 1.1.65 1.72-.02.62-.3 1.15-.83 1.61l-3.97 3.41c-.58.5-1.17.73-1.76.68-.59-.04-1.14-.36-1.64-.94l-44.61-51.87c-.45-.53-.66-1.11-.61-1.75.05-.64.34-1.19.86-1.64l3.97-3.41c.55-.46 1.12-.66 1.73-.58zM691.15 754.93c.6.16 1.08.54 1.45 1.13l36.29 57.88c.41.65.55 1.28.44 1.89-.11.61-.47 1.09-1.06 1.46l-3.9 2.45c-.59.37-1.11.53-1.55.48a7.34 7.34 0 01-1.44-.33l-58.37-27.12 28.12 44.85c.41.65.54 1.29.4 1.91-.14.62-.51 1.12-1.1 1.49l-3.99 2.5c-.65.41-1.29.54-1.91.4-.63-.14-1.14-.54-1.55-1.19l-36.24-57.79c-.37-.59-.49-1.21-.37-1.87.12-.66.48-1.17 1.07-1.54l3.99-2.5c1-.63 1.97-.66 2.9-.09l58.09 26.67-27.9-44.49c-.37-.59-.48-1.2-.34-1.82.14-.63.51-1.12 1.1-1.49l4.08-2.56c.61-.38 1.2-.48 1.79-.32zM629.37 797.07c6.43 3.02 11.26 8.5 14.5 16.46.78 1.94 1.92 5.02 3.44 9.22 1.54 4.26 2.62 7.36 3.24 9.29 2.63 8.1 2.41 15.35-.66 21.76-3.06 6.41-8.86 11.15-17.39 14.23-5.77 2.08-11.04 2.8-15.8 2.14-4.76-.66-8.68-2.08-11.77-4.26-3.09-2.19-5.14-4.5-6.18-6.95l-.07-.2c-.19-.53-.14-1.05.16-1.56.3-.52.71-.87 1.23-1.06l5.51-1.99c.59-.21 1.08-.24 1.47-.09.39.16.85.55 1.37 1.17 2.16 2.7 5.03 4.6 8.61 5.68 3.58 1.08 7.76.76 12.55-.97 5.51-1.99 9.3-5.06 11.36-9.21 2.06-4.16 2.05-9.42-.02-15.78-.62-1.93-1.64-4.86-3.06-8.79-1.4-3.87-2.48-6.78-3.26-8.72-2.49-6.29-5.86-10.38-10.09-12.26-4.24-1.88-9.11-1.83-14.62.16-5.58 2.01-9.49 5.15-11.73 9.4-2.25 4.26-2.27 9.44-.07 15.54l1.53 4.23 15.06-5.43c.66-.24 1.28-.2 1.87.1.59.3 1.01.79 1.24 1.44l1.06 2.95c.24.66.23 1.29-.04 1.9-.26.61-.72 1.04-1.38 1.27l-22.04 7.95c-.72.26-1.37.25-1.95-.02-.58-.27-1-.77-1.26-1.49l-3.37-9.35c-1.92-5.31-2.5-10.39-1.76-15.21.74-4.83 2.82-9.1 6.22-12.81 3.41-3.71 7.96-6.6 13.67-8.66 8.52-3.07 16-3.1 22.43-.08z" class="st1"/>
      </g>
      <path id="tulip" d="M533.63 828.84c-.19-.07-.39-.12-.59-.16-2.45-.53-4.85-.35-7.26.32-3.42.95-6.37 2.73-9.02 5.03-1.59 1.38-2.94 2.97-4.09 4.73-.27.41-.58.77-1.15.71-.61-.07-.99-.42-1.2-.98-.06-.15-.1-.3-.17-.45-2.21-4.8-5.42-8.92-8.78-12.94-.63-.75-1.33-.72-2.06-.02-.96.9-1.93 1.8-2.86 2.73-2.92 2.96-5.74 6.01-7.79 9.69-.51.91-1.33 1.02-2.07.28-2.01-2.01-4-4.02-6.26-5.76-2.35-1.81-4.83-3.31-7.73-4.03-1.95-.48-3.9-.55-5.84.08-.59.19-1.03.53-1.09 1.17-.06.61.36.98.82 1.31 1.93 1.39 3.45 3.15 4.59 5.24 1.74 3.19 2.23 6.69 2.37 10.25.16 3.89.01 7.79.09 11.68.06 3.02.29 6.02.7 9.01.27 1.91.75 3.78 1.3 5.63 1.01 3.41 2.52 6.56 4.79 9.32 2.82 3.45 6.43 5.72 10.67 6.99 2.23.67 4.51 1.05 6.82 1.25 1.25.02 2.49.05 3.74.07.2-.03.41-.08.61-.08 2.38-.03 4.71-.42 6.98-1.06 2.76-.78 5.39-1.87 7.77-3.53 2.42-1.69 4.45-3.72 5.86-6.34 1.37-2.55 2.17-5.3 2.86-8.08 1.38-5.54 1.65-11.2 1.6-16.89-.03-3.51-.12-7.02.22-10.52.38-3.83 1.47-7.39 3.92-10.44.77-.96 1.66-1.81 2.56-2.64.64-.56.48-1.27-.31-1.57z" class="st1"/>
    </g>
  </g>
  <path id="frame" fill="none" d="M0 0h1000v1000H0z"/>
</svg>